<?xml version="1.0" encoding="UTF-8"?>
<svg width="48px" height="48px" viewBox="0 0 48 48" version="1.1" xmlns="http://www.w3.org/2000/svg" xmlns:xlink="http://www.w3.org/1999/xlink">
    <title>903466C1-7AE7-46DD-90CA-C765C07748D7</title>
    <g id="UI-kit" stroke="none" stroke-width="1" fill="none" fill-rule="evenodd">
        <g id="Connectors" transform="translate(-520.000000, -2320.000000)" fill-rule="nonzero">
            <g id="Connector/Ably-Copy-144" transform="translate(520.000000, 2320.000000)">
                <g id="Microsoft_Office_OneDrive_(2019–present)" transform="translate(0.000000, 9.000000)">
                    <path d="M28.9988549,20.919866 L38.9066348,11.3685337 C36.8485895,3.27907062 28.6747981,-1.59695807 20.6498939,0.477655906 C17.0360588,1.41189925 13.8972647,3.67018637 11.8461628,6.81165475 C11.9995236,6.80775581 28.9988549,20.919866 28.9988549,20.919866 Z" id="Path" fill="#0364B8"></path>
                    <path d="M18.3033942,8.60977254 L18.3029282,8.61141667 C16.4097539,7.42942598 14.226401,6.80465545 11.999477,6.8076977 C11.9480306,6.8076977 11.8974695,6.8109971 11.8461162,6.81160778 C5.22219642,6.89433116 -0.0810775059,12.3743673 0.000938610473,19.0516142 C0.0306694526,21.4737509 0.781443117,23.8310148 2.15591207,25.817926 L16.9993379,23.9438963 L28.3794935,14.6937692 L18.3033942,8.60977254 Z" id="Path" fill="#0078D4"></path>
                    <path d="M38.9066348,11.3685807 C38.6888261,11.3539244 38.4699456,11.3437731 38.2485021,11.3437731 C36.9193284,11.3424625 35.6039949,11.6161402 34.3839586,12.1478528 L34.383679,12.1468193 L28.3795401,14.6938162 L34.99866,22.9359018 L46.8320012,25.8355887 C49.3856383,21.0567048 47.6126455,15.0958772 42.8719276,12.5216816 C41.6469517,11.8565124 40.2948974,11.4633767 38.9066814,11.3686277 L38.9066814,11.3685807 L38.9066348,11.3685807 Z" id="Path" fill="#1490DF"></path>
                    <path d="M2.15591207,25.817926 C4.39714225,29.0662161 8.07440006,31.0020653 11.9995236,31 L38.2484555,31 C41.8341441,31.0010318 45.1308658,29.0175498 46.8319546,25.8356827 L28.3794935,14.6937692 L2.15591207,25.817926 Z" id="Path" fill="#28A8EA"></path>
                </g>
            </g>
        </g>
    </g>
</svg>