<?xml version="1.0" encoding="UTF-8"?>
<svg xmlns="http://www.w3.org/2000/svg" xmlns:xlink="http://www.w3.org/1999/xlink" width="39pt" height="19pt" viewBox="0 0 39 19" version="1.1">
<g id="surface1">
<path style=" stroke:none;fill-rule:nonzero;fill:rgb(1.176471%,39.215686%,72.156863%);fill-opacity:1;" d="M 16.308594 5.722656 L 22.113281 9.285156 L 25.570312 7.792969 C 26.273438 7.480469 27.03125 7.320312 27.796875 7.324219 C 27.925781 7.324219 28.050781 7.328125 28.175781 7.335938 C 27.328125 3.941406 24.605469 1.382812 21.230469 0.804688 C 17.855469 0.226562 14.46875 1.742188 12.589844 4.671875 L 12.675781 4.667969 C 13.960938 4.664062 15.21875 5.03125 16.308594 5.722656 Z M 16.308594 5.722656 "/>
<path style=" stroke:none;fill-rule:nonzero;fill:rgb(0%,47.058824%,83.137255%);fill-opacity:1;" d="M 16.308594 5.722656 C 15.21875 5.03125 13.960938 4.664062 12.675781 4.667969 L 12.589844 4.671875 C 10.03125 4.703125 7.699219 6.179688 6.53125 8.511719 C 5.359375 10.84375 5.542969 13.644531 7.007812 15.796875 L 12.125 13.589844 L 14.398438 12.609375 L 19.464844 10.425781 L 22.113281 9.285156 Z M 16.308594 5.722656 "/>
<path style=" stroke:none;fill-rule:nonzero;fill:rgb(7.843137%,56.470588%,87.45098%);fill-opacity:1;" d="M 28.175781 7.335938 C 28.050781 7.328125 27.925781 7.324219 27.796875 7.324219 C 27.03125 7.320312 26.273438 7.480469 25.570312 7.792969 L 22.113281 9.285156 L 23.117188 9.898438 L 26.402344 11.917969 L 27.835938 12.796875 L 32.742188 15.804688 C 33.648438 14.082031 33.636719 12.007812 32.714844 10.296875 C 31.792969 8.582031 30.082031 7.46875 28.175781 7.335938 Z M 28.175781 7.335938 "/>
<path style=" stroke:none;fill-rule:nonzero;fill:rgb(15.686275%,65.882353%,91.764706%);fill-opacity:1;" d="M 27.835938 12.796875 L 26.402344 11.917969 L 23.117188 9.898438 L 22.113281 9.285156 L 19.46875 10.425781 L 14.402344 12.609375 L 12.125 13.589844 L 7.003906 15.796875 C 8.296875 17.695312 10.414062 18.832031 12.675781 18.828125 L 27.796875 18.828125 C 29.863281 18.828125 31.761719 17.667969 32.742188 15.804688 Z M 27.835938 12.796875 "/>
</g>
</svg>
